<svg xmlns="http://www.w3.org/2000/svg" style="display:none;">

  <symbol id="icon-eye" viewBox="0 0 24 24" fill="none">
    <path d="M1 12s4-7 11-7 11 7 11 7-4 7-11 7S1 12 1 12Z" stroke="currentColor" stroke-width="1.8"/>
    <circle cx="12" cy="12" r="3" stroke="currentColor" stroke-width="1.8"/>
  </symbol>

  <symbol id="icon-plus" viewBox="0 0 24 24" fill="none">
    <path d="M12 5v14M5 12h14" stroke="currentColor" stroke-width="2.5" stroke-linecap="round"/>
  </symbol>

  <symbol id="icon-search" viewBox="0 0 24 24" fill="none">
    <circle cx="11" cy="11" r="8" stroke="currentColor" stroke-width="2"/>
    <path d="m21 21-4.35-4.35" stroke="currentColor" stroke-width="2" stroke-linecap="round"/>
  </symbol>

  <symbol id="icon-grid" viewBox="0 0 24 24" fill="none">
    <rect x="3"  y="3"  width="8" height="8" rx="2" stroke="currentColor" stroke-width="1.8"/>
    <rect x="13" y="3"  width="8" height="8" rx="2" stroke="currentColor" stroke-width="1.8"/>
    <rect x="3"  y="13" width="8" height="8" rx="2" stroke="currentColor" stroke-width="1.8"/>
    <rect x="13" y="13" width="8" height="8" rx="2" stroke="currentColor" stroke-width="1.8"/>
  </symbol>

  <symbol id="icon-board" viewBox="0 0 24 24" fill="none">
    <path d="M9 3H5a2 2 0 0 0-2 2v4m6-6h10a2 2 0 0 1 2 2v4M9 3v18m0 0h10a2 2 0 0 0 2-2v-4M9 21H5a2 2 0 0 1-2-2v-4m0 0h18" stroke="currentColor" stroke-width="1.8" stroke-linecap="round"/>
  </symbol>

  <symbol id="icon-clipboard" viewBox="0 0 24 24" fill="none">
    <path d="M9 5H7a2 2 0 0 0-2 2v12a2 2 0 0 0 2 2h10a2 2 0 0 0 2-2V7a2 2 0 0 0-2-2h-2M9 5a2 2 0 0 0 2 2h2a2 2 0 0 0 2-2M9 5a2 2 0 0 1 2-2h2a2 2 0 0 1 2 2" stroke="currentColor" stroke-width="1.8" stroke-linecap="round"/>
  </symbol>

  <symbol id="icon-logout" viewBox="0 0 24 24" fill="none">
    <path d="M9 21H5a2 2 0 0 1-2-2V5a2 2 0 0 1 2-2h4M16 17l5-5-5-5M21 12H9" stroke="currentColor" stroke-width="1.8" stroke-linecap="round" stroke-linejoin="round"/>
  </symbol>

  <symbol id="icon-user" viewBox="0 0 24 24" fill="none">
    <circle cx="12" cy="8" r="4" stroke="currentColor" stroke-width="1.8"/>
    <path d="M4 20c0-4 3.6-7 8-7s8 3 8 7" stroke="currentColor" stroke-width="1.8" stroke-linecap="round"/>
  </symbol>

  <symbol id="icon-users" viewBox="0 0 24 24" fill="none">
    <path d="M16 21v-2a4 4 0 0 0-4-4H6a4 4 0 0 0-4 4v2" stroke="currentColor" stroke-width="2" stroke-linecap="round"/>
    <circle cx="9" cy="7" r="4" stroke="currentColor" stroke-width="2"/>
    <path d="M22 21v-2a4 4 0 0 0-3-3.87M16 3.13a4 4 0 0 1 0 7.75" stroke="currentColor" stroke-width="2" stroke-linecap="round"/>
  </symbol>

  <symbol id="icon-check-circle" viewBox="0 0 24 24" fill="none">
    <path d="M22 11.08V12a10 10 0 1 1-5.93-9.14" stroke="currentColor" stroke-width="1.8" stroke-linecap="round"/>
    <path d="M22 4 12 14.01l-3-3" stroke="currentColor" stroke-width="1.8" stroke-linecap="round" stroke-linejoin="round"/>
  </symbol>

  <symbol id="icon-clock" viewBox="0 0 24 24" fill="none">
    <circle cx="12" cy="12" r="10" stroke="currentColor" stroke-width="1.8"/>
    <path d="M12 8v4l3 3" stroke="currentColor" stroke-width="1.8" stroke-linecap="round"/>
  </symbol>

  <symbol id="icon-filter" viewBox="0 0 24 24" fill="none">
    <path d="M22 3H2l8 9.46V19l4 2v-8.54L22 3Z" stroke="currentColor" stroke-width="1.8" stroke-linecap="round" stroke-linejoin="round"/>
  </symbol>

  <symbol id="icon-calendar" viewBox="0 0 24 24" fill="none">
    <rect x="3" y="4" width="18" height="18" rx="2" stroke="currentColor" stroke-width="2"/>
    <path d="M16 2v4M8 2v4M3 10h18" stroke="currentColor" stroke-width="2" stroke-linecap="round"/>
  </symbol>

</svg>
